<svg xmlns="http://www.w3.org/2000/svg" xmlns:xlink="http://www.w3.org/1999/xlink" width="57" height="58" viewBox="0 0 57 58">
  <defs>
    <clipPath id="clip-path">
      <rect id="Rectangle_3" data-name="Rectangle 3" width="57" height="58" transform="translate(150 53.75)" fill="#0d8b8b" stroke="#707070" stroke-width="1"/>
    </clipPath>
  </defs>
  <g id="Logo" transform="translate(-150 -53.75)" clip-path="url(#clip-path)">
    <g id="Logo-2" data-name="Logo" transform="translate(149.5)">
      <rect id="Rectangle_2" data-name="Rectangle 2" width="57.56" height="111.74" transform="translate(0.53)" fill="#0d8b8b"/>
      <path id="Path_1" data-name="Path 1" d="M352.43,506.93a47.726,47.726,0,0,1,9-.79c4.91,0,8.07.85,10.44,2.77a7.94,7.94,0,0,1,3.16,6.71c0,3.67-2.43,6.88-6.43,8.35v.11c3.61.91,7.84,3.9,7.84,9.54a10.23,10.23,0,0,1-3.22,7.61c-2.65,2.43-6.94,3.56-13.14,3.56a58.51,58.51,0,0,1-7.62-.45Zm4.91,15.57h4.46c5.19,0,8.24-2.7,8.24-6.37,0-4.46-3.39-6.21-8.35-6.21a21,21,0,0,0-4.35.34Zm0,18.23a26.28,26.28,0,0,0,4.12.22c5.08,0,9.76-1.86,9.76-7.39,0-5.19-4.46-7.33-9.82-7.33h-4.06Z" transform="translate(-320.71 -430.16)" fill="#fff" stroke="#fff" stroke-miterlimit="10" stroke-width="4"/>
      <path id="Path_2" data-name="Path 2" d="M.5,66.08V79.62l40.99-9.26V57.79Z" fill="#fff" stroke="#fff" stroke-miterlimit="10" stroke-width="1"/>
      <path id="Path_3" data-name="Path 3" d="M27.61,73.26,14.38,70.34l.22,42.03H27.61Z" fill="#fff" stroke="#fff" stroke-miterlimit="10" stroke-width="1"/>
    </g>
  </g>
</svg>
